<svg version="1.1" xmlns="http://www.w3.org/2000/svg" viewBox="-2691.5841506958004 -1619.2000915527344 7820.800134277343 2757.120153808594"><desc>Created with Snap</desc><defs></defs><g><g transform="matrix(4.2014,0,0,4.2014,-2388.5856,-1316.2015)"><path d="M256,1C115.167,1,1,115.167,1,256s114.167,255,255,255s255-114.167,255-255S396.833,1,256,1z M374.499,111.168v13.167  l-79,26.333v181.325c0,38.374-26.044,73.543-63.77,80.582c-54.346,10.145-101.199-35.392-93.368-89.395  c3.137-21.666,16.837-40.786,35.032-52.957c26.185-17.513,49.304-16.542,69.44-9.381V150.668V98.001h52.667h13.167h13.167h52.667  V111.168z" fill="#000000" style=""></path><desc>Created with Snap</desc><defs></defs></g><g><g transform="matrix(1.024,0,0,-1.024,0,0)"><path d="M263 -9Q231 -9 201 0Q172 9 151 24L151 -230L64 -230L64 477L137 477L150 416Q177 441 211 459Q245 477 291 477Q385 477 439 417Q493 357 493 245Q493 179 473 131Q454 83 421 52Q389 21 347 6Q306 -9 263 -9ZM272 405Q230 405 199 384Q168 364 151 343L151 92Q174 75 200 67Q226 59 252 59Q279 59 306 68Q333 78 354 100Q375 122 388 157Q401 192 401 243Q401 318 369 361Q338 405 272 405ZM701 0L613 0L613 470L701 470L701 0ZM657 591Q634 591 617 606Q601 622 601 645Q601 668 617 684Q634 700 657 700Q679 700 696 684Q713 668 713 645Q713 622 696 606Q679 591 657 591ZM884 364L850 428Q874 440 895 449Q916 459 937 465Q958 471 980 474Q1002 477 1028 477Q1067 477 1099 468Q1132 460 1155 440Q1179 420 1192 387Q1205 355 1205 306L1205 0L1132 0L1121 52L1119 52Q1088 19 1051 5Q1014 -9 969 -9Q935 -9 906 0Q878 10 857 27Q836 45 824 70Q813 95 813 126Q813 200 871 238Q930 277 1026 277L1116 277L1116 317Q1116 368 1090 386Q1064 405 1020 405Q994 405 960 396Q927 388 884 364ZM1117 121L1117 217L1043 215Q968 213 936 188Q905 164 905 129Q905 108 912 93Q919 79 930 71Q942 63 957 59Q973 56 990 56Q1023 56 1057 71Q1091 87 1117 121ZM1422 342L1422 0L1334 0L1334 470L1403 470L1416 405Q1451 440 1489 458Q1528 477 1578 477Q1650 477 1691 436Q1732 396 1732 324L1732 0L1644 0L1644 311Q1644 354 1621 379Q1599 405 1553 405Q1483 405 1422 342ZM2299 240Q2299 181 2281 134Q2263 88 2231 56Q2200 24 2158 7Q2116 -9 2067 -9Q2018 -9 1976 6Q1935 22 1904 52Q1874 83 1856 127Q1839 172 1839 230Q1839 289 1857 335Q1875 381 1906 412Q1938 444 1980 460Q2022 477 2071 477Q2120 477 2161 462Q2203 447 2233 417Q2264 387 2281 342Q2299 298 2299 240ZM2207 235Q2207 282 2195 315Q2183 348 2163 369Q2144 390 2119 399Q2094 409 2068 409Q2042 409 2017 401Q1992 393 1973 373Q1954 353 1942 319Q1931 286 1931 235Q1931 188 1943 154Q1955 121 1974 100Q1994 79 2019 69Q2044 59 2070 59Q2096 59 2121 67Q2146 76 2165 96Q2184 117 2195 150Q2207 184 2207 235ZM2912 449L2892 382Q2859 398 2832 404Q2805 410 2778 410Q2730 410 2707 392Q2684 375 2684 346Q2684 325 2700 309Q2716 294 2767 279L2797 270Q2864 250 2898 218Q2933 187 2933 133Q2933 69 2885 30Q2838 -9 2753 -9Q2708 -9 2666 -1Q2625 7 2595 21L2616 90Q2645 76 2679 67Q2713 59 2748 59Q2793 59 2819 75Q2846 91 2846 128Q2846 160 2823 173Q2800 187 2757 200L2726 210Q2661 231 2629 262Q2598 294 2598 344Q2598 374 2611 399Q2624 424 2646 441Q2669 458 2700 467Q2731 477 2768 477Q2803 477 2840 470Q2878 464 2912 449ZM3282 470L3282 404L3144 404L3144 131Q3144 96 3161 84Q3179 72 3207 72Q3227 72 3251 76Q3275 81 3293 87L3307 20Q3287 12 3256 6Q3225 0 3191 0Q3121 0 3089 30Q3057 61 3057 119L3057 404L2987 404L2987 470L3057 470L3057 620L3144 620L3144 470L3282 470ZM3830 240Q3830 181 3812 134Q3794 88 3762 56Q3731 24 3689 7Q3647 -9 3598 -9Q3549 -9 3507 6Q3466 22 3435 52Q3405 83 3387 127Q3370 172 3370 230Q3370 289 3388 335Q3406 381 3437 412Q3469 444 3511 460Q3553 477 3602 477Q3651 477 3692 462Q3734 447 3764 417Q3795 387 3812 342Q3830 298 3830 240ZM3738 235Q3738 282 3726 315Q3714 348 3694 369Q3675 390 3650 399Q3625 409 3599 409Q3573 409 3548 401Q3523 393 3504 373Q3485 353 3473 319Q3462 286 3462 235Q3462 188 3474 154Q3486 121 3505 100Q3525 79 3550 69Q3575 59 3601 59Q3627 59 3652 67Q3677 76 3696 96Q3715 117 3726 150Q3738 184 3738 235ZM4022 0L3935 0L3935 470L4001 470L4016 376Q4033 421 4072 449Q4111 477 4162 477Q4188 477 4205 473Q4222 469 4236 463L4219 386Q4207 392 4192 396Q4178 400 4158 400Q4129 400 4104 390Q4080 380 4061 360Q4043 340 4032 310Q4022 281 4022 243L4022 0ZM4709 271L4709 225L4372 225L4372 221Q4372 143 4414 101Q4457 59 4530 59Q4568 59 4597 65Q4627 71 4662 85L4680 20Q4651 7 4611 -1Q4572 -9 4527 -9Q4476 -9 4431 5Q4387 19 4353 48Q4319 78 4299 124Q4280 170 4280 234Q4280 289 4296 334Q4313 379 4343 410Q4373 442 4415 459Q4458 477 4511 477Q4556 477 4592 462Q4629 447 4655 420Q4681 393 4695 355Q4709 317 4709 271ZM4374 286L4618 288Q4618 314 4611 336Q4605 359 4591 376Q4578 393 4557 403Q4536 413 4506 413Q4451 413 4416 378Q4382 343 4374 286Z" fill="#000000" style=""></path></g></g></g></svg>